<mxfile host="app.diagrams.net" modified="2021-11-09T02:33:13.034Z" agent="5.0 (Windows NT 10.0; Win64; x64) AppleWebKit/537.36 (KHTML, like Gecko) Chrome/95.0.4638.69 Safari/537.36" etag="q3W6tSL_fF1encNQ3iyn" version="15.7.0" type="github">
  <diagram id="R2lEEEUBdFMjLlhIrx00" name="Page-1">
    <mxGraphModel dx="1422" dy="1994" grid="1" gridSize="10" guides="1" tooltips="1" connect="1" arrows="1" fold="1" page="1" pageScale="1" pageWidth="1920" pageHeight="1200" math="0" shadow="0" extFonts="Permanent Marker^https://fonts.googleapis.com/css?family=Permanent+Marker">
      <root>
        <mxCell id="0" />
        <mxCell id="1" parent="0" />
        <mxCell id="IBcWh0dy62o7TPi3pyYx-1" value="CAIO LUIZ DOS SANTOS" style="text;html=1;align=center;verticalAlign=middle;resizable=0;points=[];autosize=1;strokeColor=none;fillColor=none;fontSize=16;" vertex="1" parent="1">
          <mxGeometry x="81.58" y="-1190" width="200" height="20" as="geometry" />
        </mxCell>
        <mxCell id="IBcWh0dy62o7TPi3pyYx-2" value="&lt;font style=&quot;font-size: 15px&quot;&gt;https://github.com/sircaio21/BancoDeDados1&lt;/font&gt;" style="text;html=1;align=center;verticalAlign=middle;resizable=0;points=[];autosize=1;strokeColor=none;fillColor=none;fontSize=23;strokeWidth=0;" vertex="1" parent="1">
          <mxGeometry x="489.08" y="-1200" width="320" height="40" as="geometry" />
        </mxCell>
        <mxCell id="IBcWh0dy62o7TPi3pyYx-4" value="RA: 1903683" style="text;html=1;align=center;verticalAlign=middle;resizable=0;points=[];autosize=1;strokeColor=none;fillColor=none;fontSize=16;" vertex="1" parent="1">
          <mxGeometry x="319.08" y="-1190" width="110" height="20" as="geometry" />
        </mxCell>
        <mxCell id="IBcWh0dy62o7TPi3pyYx-21" value="Funcionario" style="rounded=0;whiteSpace=wrap;html=1;fontSize=15;" vertex="1" parent="1">
          <mxGeometry x="420.13" y="-920" width="150" height="60" as="geometry" />
        </mxCell>
        <mxCell id="IBcWh0dy62o7TPi3pyYx-25" value="" style="ellipse;whiteSpace=wrap;html=1;aspect=fixed;fontSize=15;fillOpacity=63;noLabel=0;fillColor=#1A1A1A;" vertex="1" parent="1">
          <mxGeometry x="546.38" y="-970" width="20" height="20" as="geometry" />
        </mxCell>
        <mxCell id="IBcWh0dy62o7TPi3pyYx-27" value="&lt;font style=&quot;font-size: 12px&quot;&gt;ID&lt;/font&gt;" style="text;html=1;align=center;verticalAlign=middle;resizable=0;points=[];autosize=1;strokeColor=none;fillColor=none;fontSize=15;" vertex="1" parent="1">
          <mxGeometry x="541.38" y="-990" width="30" height="20" as="geometry" />
        </mxCell>
        <mxCell id="IBcWh0dy62o7TPi3pyYx-29" value="" style="line;strokeWidth=4;direction=south;html=1;perimeter=backbonePerimeter;points=[];outlineConnect=0;fontSize=15;" vertex="1" parent="1">
          <mxGeometry x="551.38" y="-950" width="10" height="30" as="geometry" />
        </mxCell>
        <mxCell id="IBcWh0dy62o7TPi3pyYx-33" value="" style="line;strokeWidth=4;direction=south;html=1;perimeter=backbonePerimeter;points=[];outlineConnect=0;fontSize=15;" vertex="1" parent="1">
          <mxGeometry x="478.88" y="-950" width="10" height="30" as="geometry" />
        </mxCell>
        <mxCell id="IBcWh0dy62o7TPi3pyYx-34" value="" style="ellipse;whiteSpace=wrap;html=1;aspect=fixed;fontSize=15;fillOpacity=63;noLabel=0;fillColor=none;" vertex="1" parent="1">
          <mxGeometry x="472.21" y="-970" width="20" height="20" as="geometry" />
        </mxCell>
        <mxCell id="IBcWh0dy62o7TPi3pyYx-36" value="&lt;font style=&quot;font-size: 11px&quot;&gt;Nome&lt;/font&gt;" style="text;html=1;align=center;verticalAlign=middle;resizable=0;points=[];autosize=1;strokeColor=none;fillColor=none;fontSize=15;" vertex="1" parent="1">
          <mxGeometry x="463.88" y="-990" width="40" height="20" as="geometry" />
        </mxCell>
        <mxCell id="IBcWh0dy62o7TPi3pyYx-37" value="" style="line;strokeWidth=4;direction=south;html=1;perimeter=backbonePerimeter;points=[];outlineConnect=0;fontSize=15;" vertex="1" parent="1">
          <mxGeometry x="433.88" y="-950" width="10" height="30" as="geometry" />
        </mxCell>
        <mxCell id="IBcWh0dy62o7TPi3pyYx-38" value="" style="ellipse;whiteSpace=wrap;html=1;aspect=fixed;fontSize=15;fillOpacity=63;noLabel=0;fillColor=none;" vertex="1" parent="1">
          <mxGeometry x="428.88" y="-970" width="20" height="20" as="geometry" />
        </mxCell>
        <mxCell id="IBcWh0dy62o7TPi3pyYx-39" value="&lt;span style=&quot;font-size: 11px&quot;&gt;Salario&lt;/span&gt;" style="text;html=1;align=center;verticalAlign=middle;resizable=0;points=[];autosize=1;strokeColor=none;fillColor=none;fontSize=15;" vertex="1" parent="1">
          <mxGeometry x="413.88" y="-990" width="50" height="20" as="geometry" />
        </mxCell>
        <mxCell id="IBcWh0dy62o7TPi3pyYx-50" value="Setor" style="rounded=0;whiteSpace=wrap;html=1;fontSize=15;" vertex="1" parent="1">
          <mxGeometry x="815.13" y="-920" width="150" height="60" as="geometry" />
        </mxCell>
        <mxCell id="IBcWh0dy62o7TPi3pyYx-51" value="" style="ellipse;whiteSpace=wrap;html=1;aspect=fixed;fontSize=15;fillOpacity=63;noLabel=0;fillColor=#1A1A1A;" vertex="1" parent="1">
          <mxGeometry x="941.38" y="-970" width="20" height="20" as="geometry" />
        </mxCell>
        <mxCell id="IBcWh0dy62o7TPi3pyYx-52" value="" style="line;strokeWidth=4;direction=south;html=1;perimeter=backbonePerimeter;points=[];outlineConnect=0;fontSize=15;" vertex="1" parent="1">
          <mxGeometry x="946.38" y="-950" width="10" height="30" as="geometry" />
        </mxCell>
        <mxCell id="IBcWh0dy62o7TPi3pyYx-53" value="" style="line;strokeWidth=4;direction=south;html=1;perimeter=backbonePerimeter;points=[];outlineConnect=0;fontSize=15;" vertex="1" parent="1">
          <mxGeometry x="888.88" y="-950" width="10" height="30" as="geometry" />
        </mxCell>
        <mxCell id="IBcWh0dy62o7TPi3pyYx-54" value="" style="ellipse;whiteSpace=wrap;html=1;aspect=fixed;fontSize=15;fillOpacity=63;noLabel=0;fillColor=none;" vertex="1" parent="1">
          <mxGeometry x="883.88" y="-970" width="20" height="20" as="geometry" />
        </mxCell>
        <mxCell id="IBcWh0dy62o7TPi3pyYx-55" value="" style="line;strokeWidth=4;direction=south;html=1;perimeter=backbonePerimeter;points=[];outlineConnect=0;fontSize=15;" vertex="1" parent="1">
          <mxGeometry x="828.88" y="-950" width="10" height="30" as="geometry" />
        </mxCell>
        <mxCell id="IBcWh0dy62o7TPi3pyYx-56" value="" style="ellipse;whiteSpace=wrap;html=1;aspect=fixed;fontSize=15;fillOpacity=63;noLabel=0;fillColor=none;" vertex="1" parent="1">
          <mxGeometry x="823.88" y="-970" width="20" height="20" as="geometry" />
        </mxCell>
        <mxCell id="IBcWh0dy62o7TPi3pyYx-57" value="&lt;span style=&quot;color: rgb(0 , 0 , 0) ; font-family: &amp;#34;helvetica&amp;#34; ; font-size: 12px ; font-style: normal ; font-weight: 700 ; letter-spacing: normal ; text-align: left ; text-indent: 0px ; text-transform: none ; word-spacing: 0px ; background-color: rgb(248 , 249 , 250) ; text-decoration: underline ; display: inline ; float: none&quot;&gt;ID setor&lt;/span&gt;" style="text;whiteSpace=wrap;html=1;fontSize=12;" vertex="1" parent="1">
          <mxGeometry x="935.13" y="-995" width="48.75" height="30" as="geometry" />
        </mxCell>
        <mxCell id="IBcWh0dy62o7TPi3pyYx-58" value="&lt;span style=&quot;color: rgb(0 , 0 , 0) ; font-family: &amp;#34;helvetica&amp;#34; ; font-size: 12px ; font-style: normal ; font-weight: 400 ; letter-spacing: normal ; text-align: left ; text-indent: 0px ; text-transform: none ; word-spacing: 0px ; background-color: rgb(248 , 249 , 250) ; display: inline ; float: none&quot;&gt;Nome Setor&lt;/span&gt;" style="text;whiteSpace=wrap;html=1;fontSize=12;" vertex="1" parent="1">
          <mxGeometry x="858.26" y="-995" width="71.25" height="30" as="geometry" />
        </mxCell>
        <mxCell id="IBcWh0dy62o7TPi3pyYx-60" value="&lt;font face=&quot;helvetica&quot;&gt;Chefe&lt;/font&gt;" style="text;whiteSpace=wrap;html=1;fontSize=12;" vertex="1" parent="1">
          <mxGeometry x="808.57" y="-995" width="43.12" height="30" as="geometry" />
        </mxCell>
        <mxCell id="IBcWh0dy62o7TPi3pyYx-61" value="&lt;font style=&quot;font-size: 12px&quot;&gt;Possui&lt;/font&gt;" style="rhombus;whiteSpace=wrap;html=1;shadow=0;sketch=0;fontSize=16;strokeWidth=1;fillColor=none;" vertex="1" parent="1">
          <mxGeometry x="655.13" y="-920" width="90" height="60" as="geometry" />
        </mxCell>
        <mxCell id="IBcWh0dy62o7TPi3pyYx-62" value="" style="endArrow=none;html=1;rounded=0;fontSize=14;exitX=1;exitY=0.5;exitDx=0;exitDy=0;entryX=0;entryY=0.5;entryDx=0;entryDy=0;" edge="1" parent="1" source="IBcWh0dy62o7TPi3pyYx-21" target="IBcWh0dy62o7TPi3pyYx-61">
          <mxGeometry width="50" height="50" relative="1" as="geometry">
            <mxPoint x="790.13" y="-790" as="sourcePoint" />
            <mxPoint x="840.13" y="-840" as="targetPoint" />
          </mxGeometry>
        </mxCell>
        <mxCell id="IBcWh0dy62o7TPi3pyYx-63" value="" style="endArrow=none;html=1;rounded=0;fontSize=14;entryX=1;entryY=0.5;entryDx=0;entryDy=0;exitX=0;exitY=0.5;exitDx=0;exitDy=0;" edge="1" parent="1" source="IBcWh0dy62o7TPi3pyYx-50" target="IBcWh0dy62o7TPi3pyYx-61">
          <mxGeometry width="50" height="50" relative="1" as="geometry">
            <mxPoint x="810.13" y="-890" as="sourcePoint" />
            <mxPoint x="665.13" y="-880" as="targetPoint" />
          </mxGeometry>
        </mxCell>
        <mxCell id="IBcWh0dy62o7TPi3pyYx-64" value="N" style="text;html=1;align=center;verticalAlign=middle;resizable=0;points=[];autosize=1;strokeColor=none;fillColor=none;fontSize=14;" vertex="1" parent="1">
          <mxGeometry x="632.63" y="-910" width="30" height="20" as="geometry" />
        </mxCell>
        <mxCell id="IBcWh0dy62o7TPi3pyYx-65" value="1" style="text;html=1;align=center;verticalAlign=middle;resizable=0;points=[];autosize=1;strokeColor=none;fillColor=none;fontSize=14;" vertex="1" parent="1">
          <mxGeometry x="740.13" y="-910" width="20" height="20" as="geometry" />
        </mxCell>
        <mxCell id="IBcWh0dy62o7TPi3pyYx-76" value="Seção" style="rounded=0;whiteSpace=wrap;html=1;fontSize=15;" vertex="1" parent="1">
          <mxGeometry x="75" y="-640" width="150" height="60" as="geometry" />
        </mxCell>
        <mxCell id="IBcWh0dy62o7TPi3pyYx-77" value="" style="ellipse;whiteSpace=wrap;html=1;aspect=fixed;fontSize=15;fillOpacity=63;noLabel=0;fillColor=#1A1A1A;" vertex="1" parent="1">
          <mxGeometry x="201.25" y="-690" width="20" height="20" as="geometry" />
        </mxCell>
        <mxCell id="IBcWh0dy62o7TPi3pyYx-78" value="" style="line;strokeWidth=4;direction=south;html=1;perimeter=backbonePerimeter;points=[];outlineConnect=0;fontSize=15;" vertex="1" parent="1">
          <mxGeometry x="206.25" y="-670" width="10" height="30" as="geometry" />
        </mxCell>
        <mxCell id="IBcWh0dy62o7TPi3pyYx-79" value="" style="line;strokeWidth=4;direction=south;html=1;perimeter=backbonePerimeter;points=[];outlineConnect=0;fontSize=15;" vertex="1" parent="1">
          <mxGeometry x="148.75" y="-670" width="10" height="30" as="geometry" />
        </mxCell>
        <mxCell id="IBcWh0dy62o7TPi3pyYx-80" value="" style="ellipse;whiteSpace=wrap;html=1;aspect=fixed;fontSize=15;fillOpacity=63;noLabel=0;fillColor=none;" vertex="1" parent="1">
          <mxGeometry x="143.75" y="-690" width="20" height="20" as="geometry" />
        </mxCell>
        <mxCell id="IBcWh0dy62o7TPi3pyYx-81" value="" style="line;strokeWidth=4;direction=south;html=1;perimeter=backbonePerimeter;points=[];outlineConnect=0;fontSize=15;" vertex="1" parent="1">
          <mxGeometry x="88.75" y="-670" width="10" height="30" as="geometry" />
        </mxCell>
        <mxCell id="IBcWh0dy62o7TPi3pyYx-82" value="" style="ellipse;whiteSpace=wrap;html=1;aspect=fixed;fontSize=15;fillOpacity=63;noLabel=0;fillColor=none;" vertex="1" parent="1">
          <mxGeometry x="83.75" y="-690" width="20" height="20" as="geometry" />
        </mxCell>
        <mxCell id="IBcWh0dy62o7TPi3pyYx-83" value="&lt;span style=&quot;font-size: 12px ; text-align: left&quot;&gt;Número&lt;/span&gt;" style="text;html=1;align=center;verticalAlign=middle;resizable=0;points=[];autosize=1;strokeColor=none;fillColor=none;fontSize=14;" vertex="1" parent="1">
          <mxGeometry x="186.25" y="-710" width="60" height="20" as="geometry" />
        </mxCell>
        <mxCell id="IBcWh0dy62o7TPi3pyYx-85" value="&lt;font style=&quot;font-size: 12px&quot;&gt;Titulo&lt;/font&gt;" style="text;html=1;align=center;verticalAlign=middle;resizable=0;points=[];autosize=1;strokeColor=none;fillColor=none;fontSize=14;" vertex="1" parent="1">
          <mxGeometry x="130" y="-710" width="40" height="20" as="geometry" />
        </mxCell>
        <mxCell id="IBcWh0dy62o7TPi3pyYx-86" value="&lt;font style=&quot;font-size: 12px&quot;&gt;Localizacao&lt;/font&gt;" style="text;html=1;align=center;verticalAlign=middle;resizable=0;points=[];autosize=1;strokeColor=none;fillColor=none;fontSize=14;" vertex="1" parent="1">
          <mxGeometry x="53.75" y="-710" width="80" height="20" as="geometry" />
        </mxCell>
        <mxCell id="IBcWh0dy62o7TPi3pyYx-104" value="&lt;font style=&quot;font-size: 15px&quot;&gt;Produto&lt;/font&gt;" style="rounded=0;whiteSpace=wrap;html=1;fontSize=12;strokeWidth=1;fillColor=none;" vertex="1" parent="1">
          <mxGeometry x="442.5" y="-640" width="138.75" height="60" as="geometry" />
        </mxCell>
        <mxCell id="IBcWh0dy62o7TPi3pyYx-105" value="" style="ellipse;whiteSpace=wrap;html=1;aspect=fixed;fontSize=15;fillOpacity=63;noLabel=0;fillColor=#1A1A1A;" vertex="1" parent="1">
          <mxGeometry x="560" y="-690" width="20" height="20" as="geometry" />
        </mxCell>
        <mxCell id="IBcWh0dy62o7TPi3pyYx-106" value="" style="ellipse;whiteSpace=wrap;html=1;aspect=fixed;fontSize=15;fillOpacity=63;noLabel=0;fillColor=none;" vertex="1" parent="1">
          <mxGeometry x="502.5" y="-690" width="20" height="20" as="geometry" />
        </mxCell>
        <mxCell id="IBcWh0dy62o7TPi3pyYx-107" value="" style="ellipse;whiteSpace=wrap;html=1;aspect=fixed;fontSize=15;fillOpacity=63;noLabel=0;fillColor=none;" vertex="1" parent="1">
          <mxGeometry x="442.5" y="-690" width="20" height="20" as="geometry" />
        </mxCell>
        <mxCell id="IBcWh0dy62o7TPi3pyYx-110" value="" style="line;strokeWidth=4;direction=south;html=1;perimeter=backbonePerimeter;points=[];outlineConnect=0;fontSize=15;" vertex="1" parent="1">
          <mxGeometry x="565" y="-670" width="10" height="30" as="geometry" />
        </mxCell>
        <mxCell id="IBcWh0dy62o7TPi3pyYx-111" value="" style="line;strokeWidth=4;direction=south;html=1;perimeter=backbonePerimeter;points=[];outlineConnect=0;fontSize=15;" vertex="1" parent="1">
          <mxGeometry x="506.88" y="-670" width="10" height="30" as="geometry" />
        </mxCell>
        <mxCell id="IBcWh0dy62o7TPi3pyYx-112" value="" style="line;strokeWidth=4;direction=south;html=1;perimeter=backbonePerimeter;points=[];outlineConnect=0;fontSize=15;" vertex="1" parent="1">
          <mxGeometry x="447.5" y="-670" width="10" height="30" as="geometry" />
        </mxCell>
        <mxCell id="IBcWh0dy62o7TPi3pyYx-113" value="&lt;font style=&quot;font-size: 12px&quot;&gt;Codigo&amp;nbsp;&lt;br&gt;de&amp;nbsp;&lt;br&gt;Barras&lt;/font&gt;" style="text;html=1;align=center;verticalAlign=middle;resizable=0;points=[];autosize=1;strokeColor=none;fillColor=none;fontSize=15;strokeWidth=0;" vertex="1" parent="1">
          <mxGeometry x="539.38" y="-750" width="60" height="60" as="geometry" />
        </mxCell>
        <mxCell id="IBcWh0dy62o7TPi3pyYx-114" value="&lt;span style=&quot;font-size: 12px ; text-align: left&quot;&gt;Nome&lt;/span&gt;" style="text;html=1;align=center;verticalAlign=middle;resizable=0;points=[];autosize=1;strokeColor=none;fillColor=none;fontSize=14;" vertex="1" parent="1">
          <mxGeometry x="486.88" y="-720" width="50" height="20" as="geometry" />
        </mxCell>
        <mxCell id="IBcWh0dy62o7TPi3pyYx-115" value="&lt;span style=&quot;color: rgb(0, 0, 0); font-family: helvetica; font-size: 12px; font-style: normal; font-weight: 400; letter-spacing: normal; text-align: left; text-indent: 0px; text-transform: none; word-spacing: 0px; background-color: rgb(248, 249, 250); display: inline; float: none;&quot;&gt;Preco&lt;/span&gt;" style="text;whiteSpace=wrap;html=1;fontSize=12;" vertex="1" parent="1">
          <mxGeometry x="432.5" y="-720" width="40" height="30" as="geometry" />
        </mxCell>
        <mxCell id="IBcWh0dy62o7TPi3pyYx-116" value="&lt;font style=&quot;font-size: 12px&quot;&gt;Pertence à&lt;/font&gt;" style="rhombus;whiteSpace=wrap;html=1;shadow=0;sketch=0;fontSize=16;strokeWidth=1;fillColor=none;" vertex="1" parent="1">
          <mxGeometry x="296.25" y="-640" width="90" height="60" as="geometry" />
        </mxCell>
        <mxCell id="IBcWh0dy62o7TPi3pyYx-117" value="" style="endArrow=none;html=1;rounded=0;fontSize=14;entryX=0;entryY=0.5;entryDx=0;entryDy=0;exitX=1;exitY=0.5;exitDx=0;exitDy=0;" edge="1" parent="1" target="IBcWh0dy62o7TPi3pyYx-116" source="IBcWh0dy62o7TPi3pyYx-76">
          <mxGeometry width="50" height="50" relative="1" as="geometry">
            <mxPoint x="230" y="-610" as="sourcePoint" />
            <mxPoint x="482.5" y="-560" as="targetPoint" />
          </mxGeometry>
        </mxCell>
        <mxCell id="IBcWh0dy62o7TPi3pyYx-118" value="" style="endArrow=none;html=1;rounded=0;fontSize=14;entryX=1;entryY=0.5;entryDx=0;entryDy=0;exitX=0;exitY=0.5;exitDx=0;exitDy=0;" edge="1" parent="1" target="IBcWh0dy62o7TPi3pyYx-116">
          <mxGeometry width="50" height="50" relative="1" as="geometry">
            <mxPoint x="441.25" y="-610" as="sourcePoint" />
            <mxPoint x="306.25" y="-600" as="targetPoint" />
          </mxGeometry>
        </mxCell>
        <mxCell id="IBcWh0dy62o7TPi3pyYx-119" value="1" style="text;html=1;align=center;verticalAlign=middle;resizable=0;points=[];autosize=1;strokeColor=none;fillColor=none;fontSize=14;" vertex="1" parent="1">
          <mxGeometry x="278.75" y="-630" width="20" height="20" as="geometry" />
        </mxCell>
        <mxCell id="IBcWh0dy62o7TPi3pyYx-120" value="N" style="text;html=1;align=center;verticalAlign=middle;resizable=0;points=[];autosize=1;strokeColor=none;fillColor=none;fontSize=14;" vertex="1" parent="1">
          <mxGeometry x="376.25" y="-630" width="30" height="20" as="geometry" />
        </mxCell>
        <mxCell id="IBcWh0dy62o7TPi3pyYx-137" value="&lt;font style=&quot;font-size: 15px&quot;&gt;Fornecedor&lt;/font&gt;" style="rounded=0;whiteSpace=wrap;html=1;fontSize=12;strokeWidth=1;fillColor=none;" vertex="1" parent="1">
          <mxGeometry x="839.38" y="-640" width="138.75" height="60" as="geometry" />
        </mxCell>
        <mxCell id="IBcWh0dy62o7TPi3pyYx-138" value="" style="ellipse;whiteSpace=wrap;html=1;aspect=fixed;fontSize=15;fillOpacity=63;noLabel=0;fillColor=#1A1A1A;" vertex="1" parent="1">
          <mxGeometry x="958.13" y="-690" width="20" height="20" as="geometry" />
        </mxCell>
        <mxCell id="IBcWh0dy62o7TPi3pyYx-139" value="" style="ellipse;whiteSpace=wrap;html=1;aspect=fixed;fontSize=15;fillOpacity=63;noLabel=0;fillColor=none;" vertex="1" parent="1">
          <mxGeometry x="900.63" y="-690" width="20" height="20" as="geometry" />
        </mxCell>
        <mxCell id="IBcWh0dy62o7TPi3pyYx-140" value="" style="ellipse;whiteSpace=wrap;html=1;aspect=fixed;fontSize=15;fillOpacity=63;noLabel=0;fillColor=none;" vertex="1" parent="1">
          <mxGeometry x="840.63" y="-690" width="20" height="20" as="geometry" />
        </mxCell>
        <mxCell id="IBcWh0dy62o7TPi3pyYx-141" value="" style="line;strokeWidth=4;direction=south;html=1;perimeter=backbonePerimeter;points=[];outlineConnect=0;fontSize=15;" vertex="1" parent="1">
          <mxGeometry x="963.13" y="-670" width="10" height="30" as="geometry" />
        </mxCell>
        <mxCell id="IBcWh0dy62o7TPi3pyYx-142" value="" style="line;strokeWidth=4;direction=south;html=1;perimeter=backbonePerimeter;points=[];outlineConnect=0;fontSize=15;" vertex="1" parent="1">
          <mxGeometry x="905.01" y="-670" width="10" height="30" as="geometry" />
        </mxCell>
        <mxCell id="IBcWh0dy62o7TPi3pyYx-143" value="" style="line;strokeWidth=4;direction=south;html=1;perimeter=backbonePerimeter;points=[];outlineConnect=0;fontSize=15;" vertex="1" parent="1">
          <mxGeometry x="845.63" y="-670" width="10" height="30" as="geometry" />
        </mxCell>
        <mxCell id="IBcWh0dy62o7TPi3pyYx-144" value="&lt;span style=&quot;font-size: 12px&quot;&gt;CNPJ&lt;/span&gt;" style="text;html=1;align=center;verticalAlign=middle;resizable=0;points=[];autosize=1;strokeColor=none;fillColor=none;fontSize=15;strokeWidth=0;" vertex="1" parent="1">
          <mxGeometry x="943.13" y="-710" width="50" height="20" as="geometry" />
        </mxCell>
        <mxCell id="IBcWh0dy62o7TPi3pyYx-145" value="&lt;span style=&quot;font-size: 12px ; text-align: left&quot;&gt;Nome&lt;/span&gt;" style="text;html=1;align=center;verticalAlign=middle;resizable=0;points=[];autosize=1;strokeColor=none;fillColor=none;fontSize=14;" vertex="1" parent="1">
          <mxGeometry x="885.01" y="-710" width="50" height="20" as="geometry" />
        </mxCell>
        <mxCell id="IBcWh0dy62o7TPi3pyYx-146" value="&lt;span&gt;Endereço&lt;/span&gt;" style="text;whiteSpace=wrap;html=1;fontSize=12;" vertex="1" parent="1">
          <mxGeometry x="820.63" y="-712.5" width="50" height="25" as="geometry" />
        </mxCell>
        <mxCell id="IBcWh0dy62o7TPi3pyYx-150" value="&lt;font style=&quot;font-size: 12px&quot;&gt;Fonerce&lt;/font&gt;" style="rhombus;whiteSpace=wrap;html=1;shadow=0;sketch=0;fontSize=16;strokeWidth=1;fillColor=none;" vertex="1" parent="1">
          <mxGeometry x="647.5" y="-640" width="90" height="60" as="geometry" />
        </mxCell>
        <mxCell id="IBcWh0dy62o7TPi3pyYx-151" value="N" style="text;html=1;align=center;verticalAlign=middle;resizable=0;points=[];autosize=1;strokeColor=none;fillColor=none;fontSize=14;" vertex="1" parent="1">
          <mxGeometry x="625" y="-630" width="30" height="20" as="geometry" />
        </mxCell>
        <mxCell id="IBcWh0dy62o7TPi3pyYx-152" value="1" style="text;html=1;align=center;verticalAlign=middle;resizable=0;points=[];autosize=1;strokeColor=none;fillColor=none;fontSize=14;" vertex="1" parent="1">
          <mxGeometry x="732.5" y="-630" width="20" height="20" as="geometry" />
        </mxCell>
        <mxCell id="IBcWh0dy62o7TPi3pyYx-153" value="" style="endArrow=none;html=1;rounded=0;fontSize=14;exitX=1;exitY=0.5;exitDx=0;exitDy=0;" edge="1" parent="1" source="IBcWh0dy62o7TPi3pyYx-104">
          <mxGeometry width="50" height="50" relative="1" as="geometry">
            <mxPoint x="539.38" y="-590" as="sourcePoint" />
            <mxPoint x="650" y="-610" as="targetPoint" />
          </mxGeometry>
        </mxCell>
        <mxCell id="IBcWh0dy62o7TPi3pyYx-154" value="" style="endArrow=none;html=1;rounded=0;fontSize=14;entryX=0;entryY=0.5;entryDx=0;entryDy=0;exitX=1;exitY=0.5;exitDx=0;exitDy=0;" edge="1" parent="1" source="IBcWh0dy62o7TPi3pyYx-150" target="IBcWh0dy62o7TPi3pyYx-137">
          <mxGeometry width="50" height="50" relative="1" as="geometry">
            <mxPoint x="451.25" y="-600" as="sourcePoint" />
            <mxPoint x="396.25" y="-600" as="targetPoint" />
          </mxGeometry>
        </mxCell>
        <mxCell id="IBcWh0dy62o7TPi3pyYx-155" value="&lt;font style=&quot;font-size: 12px&quot;&gt;Responsável&lt;/font&gt;" style="rounded=0;whiteSpace=wrap;html=1;fontSize=12;strokeWidth=1;fillColor=none;" vertex="1" parent="1">
          <mxGeometry x="815.13" y="-398" width="100" height="105" as="geometry" />
        </mxCell>
        <mxCell id="IBcWh0dy62o7TPi3pyYx-158" value="" style="endArrow=none;html=1;rounded=0;fontSize=14;exitX=0.5;exitY=0;exitDx=0;exitDy=0;entryX=0.5;entryY=1;entryDx=0;entryDy=0;" edge="1" parent="1" source="IBcWh0dy62o7TPi3pyYx-155" target="IBcWh0dy62o7TPi3pyYx-228">
          <mxGeometry width="50" height="50" relative="1" as="geometry">
            <mxPoint x="591.25" y="-600" as="sourcePoint" />
            <mxPoint x="863.1199999999999" y="-460" as="targetPoint" />
          </mxGeometry>
        </mxCell>
        <mxCell id="IBcWh0dy62o7TPi3pyYx-159" value="" style="endArrow=none;html=1;rounded=0;fontSize=14;entryX=0.5;entryY=1;entryDx=0;entryDy=0;exitX=0.5;exitY=0;exitDx=0;exitDy=0;" edge="1" parent="1" source="IBcWh0dy62o7TPi3pyYx-228" target="IBcWh0dy62o7TPi3pyYx-137">
          <mxGeometry width="50" height="50" relative="1" as="geometry">
            <mxPoint x="863.1199999999999" y="-520" as="sourcePoint" />
            <mxPoint x="803.75" y="-600" as="targetPoint" />
          </mxGeometry>
        </mxCell>
        <mxCell id="IBcWh0dy62o7TPi3pyYx-160" value="1" style="text;html=1;align=center;verticalAlign=middle;resizable=0;points=[];autosize=1;strokeColor=none;fillColor=none;fontSize=14;" vertex="1" parent="1">
          <mxGeometry x="885.01" y="-540" width="20" height="20" as="geometry" />
        </mxCell>
        <mxCell id="IBcWh0dy62o7TPi3pyYx-161" value="1" style="text;html=1;align=center;verticalAlign=middle;resizable=0;points=[];autosize=1;strokeColor=none;fillColor=none;fontSize=14;" vertex="1" parent="1">
          <mxGeometry x="869.38" y="-447.5" width="20" height="20" as="geometry" />
        </mxCell>
        <mxCell id="IBcWh0dy62o7TPi3pyYx-163" value="" style="line;strokeWidth=4;html=1;perimeter=backbonePerimeter;points=[];outlineConnect=0;fontSize=12;fillColor=none;" vertex="1" parent="1">
          <mxGeometry x="917" y="-390" width="47.5" height="10" as="geometry" />
        </mxCell>
        <mxCell id="IBcWh0dy62o7TPi3pyYx-164" value="" style="ellipse;whiteSpace=wrap;html=1;aspect=fixed;fontSize=15;fillOpacity=63;noLabel=0;fillColor=#1A1A1A;" vertex="1" parent="1">
          <mxGeometry x="964.5" y="-395" width="20" height="20" as="geometry" />
        </mxCell>
        <mxCell id="IBcWh0dy62o7TPi3pyYx-165" value="" style="line;strokeWidth=4;html=1;perimeter=backbonePerimeter;points=[];outlineConnect=0;fontSize=12;fillColor=none;" vertex="1" parent="1">
          <mxGeometry x="916.38" y="-307.5" width="47.5" height="10" as="geometry" />
        </mxCell>
        <mxCell id="IBcWh0dy62o7TPi3pyYx-166" value="" style="ellipse;whiteSpace=wrap;html=1;aspect=fixed;fontSize=15;fillOpacity=63;noLabel=0;fillColor=none;" vertex="1" parent="1">
          <mxGeometry x="963.88" y="-312.5" width="19.5" height="19.5" as="geometry" />
        </mxCell>
        <mxCell id="IBcWh0dy62o7TPi3pyYx-168" value="CPF" style="text;html=1;align=center;verticalAlign=middle;resizable=0;points=[];autosize=1;strokeColor=none;fillColor=none;fontSize=12;" vertex="1" parent="1">
          <mxGeometry x="923.13" y="-410" width="40" height="20" as="geometry" />
        </mxCell>
        <mxCell id="IBcWh0dy62o7TPi3pyYx-169" value="" style="line;strokeWidth=4;html=1;perimeter=backbonePerimeter;points=[];outlineConnect=0;fontSize=12;fillColor=none;" vertex="1" parent="1">
          <mxGeometry x="916.38" y="-347.5" width="47.5" height="10" as="geometry" />
        </mxCell>
        <mxCell id="IBcWh0dy62o7TPi3pyYx-170" value="" style="ellipse;whiteSpace=wrap;html=1;aspect=fixed;fontSize=15;fillOpacity=63;noLabel=0;fillColor=none;" vertex="1" parent="1">
          <mxGeometry x="963.38" y="-352.5" width="20" height="20" as="geometry" />
        </mxCell>
        <mxCell id="IBcWh0dy62o7TPi3pyYx-171" value="Email" style="text;html=1;align=center;verticalAlign=middle;resizable=0;points=[];autosize=1;strokeColor=none;fillColor=none;fontSize=12;" vertex="1" parent="1">
          <mxGeometry x="912" y="-367.5" width="50" height="20" as="geometry" />
        </mxCell>
        <mxCell id="IBcWh0dy62o7TPi3pyYx-172" value="Telefone" style="text;html=1;align=center;verticalAlign=middle;resizable=0;points=[];autosize=1;strokeColor=none;fillColor=none;fontSize=12;" vertex="1" parent="1">
          <mxGeometry x="914.5" y="-327.5" width="60" height="20" as="geometry" />
        </mxCell>
        <mxCell id="IBcWh0dy62o7TPi3pyYx-193" value="&lt;span style=&quot;font-size: 15px&quot;&gt;Prateleira&lt;/span&gt;" style="rounded=0;whiteSpace=wrap;html=1;fontSize=12;strokeWidth=1;fillColor=none;" vertex="1" parent="1">
          <mxGeometry x="113.75" y="-415.5" width="100" height="105" as="geometry" />
        </mxCell>
        <mxCell id="IBcWh0dy62o7TPi3pyYx-194" value="" style="line;strokeWidth=4;html=1;perimeter=backbonePerimeter;points=[];outlineConnect=0;fontSize=12;fillColor=none;" vertex="1" parent="1">
          <mxGeometry x="215.01" y="-408" width="47.5" height="10" as="geometry" />
        </mxCell>
        <mxCell id="IBcWh0dy62o7TPi3pyYx-195" value="" style="ellipse;whiteSpace=wrap;html=1;aspect=fixed;fontSize=15;fillOpacity=63;noLabel=0;fillColor=#1A1A1A;" vertex="1" parent="1">
          <mxGeometry x="262.51" y="-413" width="20" height="20" as="geometry" />
        </mxCell>
        <mxCell id="IBcWh0dy62o7TPi3pyYx-196" value="" style="line;strokeWidth=4;html=1;perimeter=backbonePerimeter;points=[];outlineConnect=0;fontSize=12;fillColor=none;" vertex="1" parent="1">
          <mxGeometry x="214.39" y="-325.5" width="65.61" height="10" as="geometry" />
        </mxCell>
        <mxCell id="IBcWh0dy62o7TPi3pyYx-197" value="" style="ellipse;whiteSpace=wrap;html=1;aspect=fixed;fontSize=15;fillOpacity=63;noLabel=0;fillColor=none;" vertex="1" parent="1">
          <mxGeometry x="279.25" y="-330.25" width="19.5" height="19.5" as="geometry" />
        </mxCell>
        <mxCell id="IBcWh0dy62o7TPi3pyYx-198" value="Número" style="text;html=1;align=center;verticalAlign=middle;resizable=0;points=[];autosize=1;strokeColor=none;fillColor=none;fontSize=12;" vertex="1" parent="1">
          <mxGeometry x="212.51" y="-428" width="60" height="20" as="geometry" />
        </mxCell>
        <mxCell id="IBcWh0dy62o7TPi3pyYx-199" value="" style="line;strokeWidth=4;html=1;perimeter=backbonePerimeter;points=[];outlineConnect=0;fontSize=12;fillColor=none;" vertex="1" parent="1">
          <mxGeometry x="214.39" y="-365.5" width="51.87" height="10" as="geometry" />
        </mxCell>
        <mxCell id="IBcWh0dy62o7TPi3pyYx-200" value="" style="ellipse;whiteSpace=wrap;html=1;aspect=fixed;fontSize=15;fillOpacity=63;noLabel=0;fillColor=none;" vertex="1" parent="1">
          <mxGeometry x="266.26" y="-370.5" width="20" height="20" as="geometry" />
        </mxCell>
        <mxCell id="IBcWh0dy62o7TPi3pyYx-201" value="Espaço" style="text;html=1;align=center;verticalAlign=middle;resizable=0;points=[];autosize=1;strokeColor=none;fillColor=none;fontSize=12;" vertex="1" parent="1">
          <mxGeometry x="216.26" y="-385.5" width="60" height="20" as="geometry" />
        </mxCell>
        <mxCell id="IBcWh0dy62o7TPi3pyYx-202" value="Posicao" style="text;html=1;align=center;verticalAlign=middle;resizable=0;points=[];autosize=1;strokeColor=none;fillColor=none;fontSize=12;" vertex="1" parent="1">
          <mxGeometry x="217.19" y="-345" width="60" height="20" as="geometry" />
        </mxCell>
        <mxCell id="IBcWh0dy62o7TPi3pyYx-204" value="&lt;font style=&quot;font-size: 12px&quot;&gt;Possui&lt;/font&gt;" style="rhombus;whiteSpace=wrap;html=1;shadow=0;sketch=0;fontSize=16;strokeWidth=1;fillColor=none;" vertex="1" parent="1">
          <mxGeometry x="108.75" y="-520" width="90" height="60" as="geometry" />
        </mxCell>
        <mxCell id="IBcWh0dy62o7TPi3pyYx-205" value="" style="endArrow=none;html=1;rounded=0;fontSize=14;exitX=0.5;exitY=0;exitDx=0;exitDy=0;entryX=0.5;entryY=1;entryDx=0;entryDy=0;" edge="1" parent="1" target="IBcWh0dy62o7TPi3pyYx-204">
          <mxGeometry width="50" height="50" relative="1" as="geometry">
            <mxPoint x="153.7499999999999" y="-415" as="sourcePoint" />
            <mxPoint x="-49.370000000000005" y="-600" as="targetPoint" />
          </mxGeometry>
        </mxCell>
        <mxCell id="IBcWh0dy62o7TPi3pyYx-206" value="" style="endArrow=none;html=1;rounded=0;fontSize=14;entryX=0.5;entryY=1;entryDx=0;entryDy=0;exitX=0.5;exitY=0;exitDx=0;exitDy=0;" edge="1" parent="1" source="IBcWh0dy62o7TPi3pyYx-204">
          <mxGeometry width="50" height="50" relative="1" as="geometry">
            <mxPoint x="38.129999999999995" y="-600" as="sourcePoint" />
            <mxPoint x="153.755" y="-580" as="targetPoint" />
          </mxGeometry>
        </mxCell>
        <mxCell id="IBcWh0dy62o7TPi3pyYx-207" value="1" style="text;html=1;align=center;verticalAlign=middle;resizable=0;points=[];autosize=1;strokeColor=none;fillColor=none;fontSize=14;" vertex="1" parent="1">
          <mxGeometry x="150.01" y="-540" width="20" height="20" as="geometry" />
        </mxCell>
        <mxCell id="IBcWh0dy62o7TPi3pyYx-208" value="N" style="text;html=1;align=center;verticalAlign=middle;resizable=0;points=[];autosize=1;strokeColor=none;fillColor=none;fontSize=14;" vertex="1" parent="1">
          <mxGeometry x="145.01" y="-460" width="30" height="20" as="geometry" />
        </mxCell>
        <mxCell id="IBcWh0dy62o7TPi3pyYx-219" value="&lt;span style=&quot;font-size: 15px&quot;&gt;Cliente&lt;/span&gt;" style="rounded=0;whiteSpace=wrap;html=1;fontSize=12;strokeWidth=1;fillColor=none;" vertex="1" parent="1">
          <mxGeometry x="462.5" y="-372.75" width="175" height="75" as="geometry" />
        </mxCell>
        <mxCell id="IBcWh0dy62o7TPi3pyYx-227" value="&lt;font style=&quot;font-size: 12px&quot;&gt;Possui&lt;/font&gt;" style="rhombus;whiteSpace=wrap;html=1;shadow=0;sketch=0;fontSize=16;strokeWidth=1;fillColor=none;" vertex="1" parent="1">
          <mxGeometry x="809.08" y="-515" width="110.62" height="60" as="geometry" />
        </mxCell>
        <mxCell id="IBcWh0dy62o7TPi3pyYx-228" value="" style="rhombus;whiteSpace=wrap;html=1;shadow=0;sketch=0;fontSize=16;strokeWidth=1;fillColor=none;" vertex="1" parent="1">
          <mxGeometry x="798.44" y="-520" width="133.13" height="70" as="geometry" />
        </mxCell>
        <mxCell id="IBcWh0dy62o7TPi3pyYx-230" value="" style="rounded=0;whiteSpace=wrap;html=1;fontSize=12;strokeWidth=1;fillColor=none;" vertex="1" parent="1">
          <mxGeometry x="820.13" y="-392.25" width="90" height="94.5" as="geometry" />
        </mxCell>
        <mxCell id="IBcWh0dy62o7TPi3pyYx-249" value="" style="ellipse;whiteSpace=wrap;html=1;aspect=fixed;fontSize=15;fillOpacity=63;noLabel=0;fillColor=#1A1A1A;" vertex="1" parent="1">
          <mxGeometry x="587.21" y="-427.5" width="20" height="20" as="geometry" />
        </mxCell>
        <mxCell id="IBcWh0dy62o7TPi3pyYx-250" value="" style="line;strokeWidth=4;direction=south;html=1;perimeter=backbonePerimeter;points=[];outlineConnect=0;fontSize=15;" vertex="1" parent="1">
          <mxGeometry x="592.21" y="-407.5" width="10" height="40.75" as="geometry" />
        </mxCell>
        <mxCell id="IBcWh0dy62o7TPi3pyYx-251" value="" style="line;strokeWidth=4;direction=south;html=1;perimeter=backbonePerimeter;points=[];outlineConnect=0;fontSize=15;" vertex="1" parent="1">
          <mxGeometry x="534.71" y="-407.5" width="10" height="40.75" as="geometry" />
        </mxCell>
        <mxCell id="IBcWh0dy62o7TPi3pyYx-252" value="" style="ellipse;whiteSpace=wrap;html=1;aspect=fixed;fontSize=15;fillOpacity=63;noLabel=0;fillColor=none;" vertex="1" parent="1">
          <mxGeometry x="529.38" y="-427.5" width="20" height="20" as="geometry" />
        </mxCell>
        <mxCell id="IBcWh0dy62o7TPi3pyYx-253" value="" style="line;strokeWidth=4;direction=south;html=1;perimeter=backbonePerimeter;points=[];outlineConnect=0;fontSize=15;" vertex="1" parent="1">
          <mxGeometry x="474.71" y="-407.5" width="10" height="34.5" as="geometry" />
        </mxCell>
        <mxCell id="IBcWh0dy62o7TPi3pyYx-254" value="" style="ellipse;whiteSpace=wrap;html=1;aspect=fixed;fontSize=15;fillOpacity=63;noLabel=0;fillColor=none;" vertex="1" parent="1">
          <mxGeometry x="469.71" y="-425.5" width="20" height="20" as="geometry" />
        </mxCell>
        <mxCell id="IBcWh0dy62o7TPi3pyYx-255" value="&lt;font style=&quot;font-size: 12px&quot;&gt;Nome&lt;/font&gt;" style="text;html=1;align=center;verticalAlign=middle;resizable=0;points=[];autosize=1;strokeColor=none;fillColor=none;fontSize=14;" vertex="1" parent="1">
          <mxGeometry x="514.7099999999999" y="-447.5" width="50" height="20" as="geometry" />
        </mxCell>
        <mxCell id="IBcWh0dy62o7TPi3pyYx-256" value="&lt;span style=&quot;font-size: 12px&quot;&gt;Cartão Fidelidade&lt;/span&gt;" style="text;html=1;align=center;verticalAlign=middle;resizable=0;points=[];autosize=1;strokeColor=none;fillColor=none;fontSize=14;" vertex="1" parent="1">
          <mxGeometry x="400" y="-445.5" width="110" height="20" as="geometry" />
        </mxCell>
        <mxCell id="IBcWh0dy62o7TPi3pyYx-257" value="CPF" style="text;html=1;align=center;verticalAlign=middle;resizable=0;points=[];autosize=1;strokeColor=none;fillColor=none;fontSize=12;" vertex="1" parent="1">
          <mxGeometry x="577.5" y="-445.5" width="40" height="20" as="geometry" />
        </mxCell>
        <mxCell id="IBcWh0dy62o7TPi3pyYx-267" value="Dependente" style="rounded=0;whiteSpace=wrap;html=1;fontSize=15;" vertex="1" parent="1">
          <mxGeometry x="117.62" y="-925" width="150" height="60" as="geometry" />
        </mxCell>
        <mxCell id="IBcWh0dy62o7TPi3pyYx-268" value="" style="ellipse;whiteSpace=wrap;html=1;aspect=fixed;fontSize=15;fillOpacity=63;noLabel=0;fillColor=#1A1A1A;" vertex="1" parent="1">
          <mxGeometry x="243.87" y="-975" width="20" height="20" as="geometry" />
        </mxCell>
        <mxCell id="IBcWh0dy62o7TPi3pyYx-269" value="" style="line;strokeWidth=4;direction=south;html=1;perimeter=backbonePerimeter;points=[];outlineConnect=0;fontSize=15;" vertex="1" parent="1">
          <mxGeometry x="248.87" y="-955" width="10" height="30" as="geometry" />
        </mxCell>
        <mxCell id="IBcWh0dy62o7TPi3pyYx-270" value="" style="line;strokeWidth=4;direction=south;html=1;perimeter=backbonePerimeter;points=[];outlineConnect=0;fontSize=15;" vertex="1" parent="1">
          <mxGeometry x="191.37" y="-955" width="10" height="30" as="geometry" />
        </mxCell>
        <mxCell id="IBcWh0dy62o7TPi3pyYx-271" value="" style="ellipse;whiteSpace=wrap;html=1;aspect=fixed;fontSize=15;fillOpacity=63;noLabel=0;fillColor=none;" vertex="1" parent="1">
          <mxGeometry x="186.37" y="-975" width="20" height="20" as="geometry" />
        </mxCell>
        <mxCell id="IBcWh0dy62o7TPi3pyYx-272" value="" style="line;strokeWidth=4;direction=south;html=1;perimeter=backbonePerimeter;points=[];outlineConnect=0;fontSize=15;" vertex="1" parent="1">
          <mxGeometry x="131.37" y="-955" width="10" height="30" as="geometry" />
        </mxCell>
        <mxCell id="IBcWh0dy62o7TPi3pyYx-273" value="" style="ellipse;whiteSpace=wrap;html=1;aspect=fixed;fontSize=15;fillOpacity=63;noLabel=0;fillColor=none;" vertex="1" parent="1">
          <mxGeometry x="126.37" y="-975" width="20" height="20" as="geometry" />
        </mxCell>
        <mxCell id="IBcWh0dy62o7TPi3pyYx-274" value="&lt;span style=&quot;color: rgb(0, 0, 0); font-family: helvetica; font-size: 12px; font-style: normal; font-weight: 400; letter-spacing: normal; text-align: center; text-indent: 0px; text-transform: none; word-spacing: 0px; background-color: rgb(248, 249, 250); display: inline; float: none;&quot;&gt;CPF&lt;/span&gt;" style="text;whiteSpace=wrap;html=1;fontSize=12;" vertex="1" parent="1">
          <mxGeometry x="236.37" y="-1000" width="36.25" height="20" as="geometry" />
        </mxCell>
        <mxCell id="IBcWh0dy62o7TPi3pyYx-275" value="&lt;span style=&quot;color: rgb(0 , 0 , 0) ; font-family: &amp;#34;helvetica&amp;#34; ; font-size: 12px ; font-style: normal ; font-weight: 400 ; letter-spacing: normal ; text-align: center ; text-indent: 0px ; text-transform: none ; word-spacing: 0px ; background-color: rgb(248 , 249 , 250) ; display: inline ; float: none&quot;&gt;Idade&lt;/span&gt;" style="text;whiteSpace=wrap;html=1;fontSize=12;" vertex="1" parent="1">
          <mxGeometry x="178.24" y="-1000" width="36.25" height="30" as="geometry" />
        </mxCell>
        <mxCell id="IBcWh0dy62o7TPi3pyYx-276" value="&lt;span style=&quot;color: rgb(0 , 0 , 0) ; font-family: &amp;#34;helvetica&amp;#34; ; font-size: 12px ; font-style: normal ; font-weight: 400 ; letter-spacing: normal ; text-align: center ; text-indent: 0px ; text-transform: none ; word-spacing: 0px ; background-color: rgb(248 , 249 , 250) ; display: inline ; float: none&quot;&gt;Parestesco&lt;/span&gt;" style="text;whiteSpace=wrap;html=1;fontSize=12;" vertex="1" parent="1">
          <mxGeometry x="103.37" y="-1000" width="66" height="30" as="geometry" />
        </mxCell>
        <mxCell id="IBcWh0dy62o7TPi3pyYx-278" value="&lt;font style=&quot;font-size: 12px&quot;&gt;Possui&lt;/font&gt;" style="rhombus;whiteSpace=wrap;html=1;shadow=0;sketch=0;fontSize=16;strokeWidth=1;fillColor=none;" vertex="1" parent="1">
          <mxGeometry x="301.37" y="-925" width="90" height="60" as="geometry" />
        </mxCell>
        <mxCell id="IBcWh0dy62o7TPi3pyYx-279" value="N" style="text;html=1;align=center;verticalAlign=middle;resizable=0;points=[];autosize=1;strokeColor=none;fillColor=none;fontSize=14;" vertex="1" parent="1">
          <mxGeometry x="276.38" y="-920" width="30" height="20" as="geometry" />
        </mxCell>
        <mxCell id="IBcWh0dy62o7TPi3pyYx-280" value="1" style="text;html=1;align=center;verticalAlign=middle;resizable=0;points=[];autosize=1;strokeColor=none;fillColor=none;fontSize=14;" vertex="1" parent="1">
          <mxGeometry x="383.88" y="-920" width="20" height="20" as="geometry" />
        </mxCell>
        <mxCell id="IBcWh0dy62o7TPi3pyYx-281" value="" style="endArrow=none;html=1;rounded=0;fontSize=14;exitX=1;exitY=0.5;exitDx=0;exitDy=0;entryX=0;entryY=0.5;entryDx=0;entryDy=0;" edge="1" parent="1" source="IBcWh0dy62o7TPi3pyYx-267" target="IBcWh0dy62o7TPi3pyYx-278">
          <mxGeometry width="50" height="50" relative="1" as="geometry">
            <mxPoint x="580.1300000000002" y="-880" as="sourcePoint" />
            <mxPoint x="665.1300000000002" y="-880" as="targetPoint" />
          </mxGeometry>
        </mxCell>
        <mxCell id="IBcWh0dy62o7TPi3pyYx-282" value="" style="endArrow=none;html=1;rounded=0;fontSize=14;exitX=1;exitY=0.5;exitDx=0;exitDy=0;" edge="1" parent="1" source="IBcWh0dy62o7TPi3pyYx-278">
          <mxGeometry width="50" height="50" relative="1" as="geometry">
            <mxPoint x="580.1300000000002" y="-880" as="sourcePoint" />
            <mxPoint x="417.62" y="-895" as="targetPoint" />
          </mxGeometry>
        </mxCell>
        <mxCell id="IBcWh0dy62o7TPi3pyYx-283" value="&lt;font style=&quot;font-size: 12px&quot;&gt;Possui&lt;/font&gt;" style="rhombus;whiteSpace=wrap;html=1;shadow=0;sketch=0;fontSize=16;strokeWidth=1;fillColor=none;" vertex="1" parent="1">
          <mxGeometry x="292.5" y="-780" width="107.5" height="60" as="geometry" />
        </mxCell>
        <mxCell id="IBcWh0dy62o7TPi3pyYx-284" value="" style="endArrow=none;html=1;rounded=0;fontSize=14;exitX=1;exitY=0;exitDx=0;exitDy=0;entryX=0;entryY=1;entryDx=0;entryDy=0;" edge="1" parent="1" source="IBcWh0dy62o7TPi3pyYx-283" target="IBcWh0dy62o7TPi3pyYx-21">
          <mxGeometry width="50" height="50" relative="1" as="geometry">
            <mxPoint x="401.3699999999999" y="-885" as="sourcePoint" />
            <mxPoint x="427.6199999999999" y="-885" as="targetPoint" />
          </mxGeometry>
        </mxCell>
        <mxCell id="IBcWh0dy62o7TPi3pyYx-285" value="" style="endArrow=none;html=1;rounded=0;fontSize=14;exitX=0;exitY=1;exitDx=0;exitDy=0;entryX=1;entryY=0;entryDx=0;entryDy=0;" edge="1" parent="1" source="IBcWh0dy62o7TPi3pyYx-283" target="IBcWh0dy62o7TPi3pyYx-76">
          <mxGeometry width="50" height="50" relative="1" as="geometry">
            <mxPoint x="382.5" y="-785" as="sourcePoint" />
            <mxPoint x="430.1300000000001" y="-850" as="targetPoint" />
          </mxGeometry>
        </mxCell>
        <mxCell id="IBcWh0dy62o7TPi3pyYx-286" value="1" style="text;html=1;align=center;verticalAlign=middle;resizable=0;points=[];autosize=1;strokeColor=none;fillColor=none;fontSize=14;" vertex="1" parent="1">
          <mxGeometry x="281.38" y="-740" width="20" height="20" as="geometry" />
        </mxCell>
        <mxCell id="IBcWh0dy62o7TPi3pyYx-287" value="N" style="text;html=1;align=center;verticalAlign=middle;resizable=0;points=[];autosize=1;strokeColor=none;fillColor=none;fontSize=14;" vertex="1" parent="1">
          <mxGeometry x="351.25" y="-790" width="30" height="20" as="geometry" />
        </mxCell>
        <mxCell id="IBcWh0dy62o7TPi3pyYx-298" value="&lt;font style=&quot;font-size: 12px&quot;&gt;Possui&lt;/font&gt;" style="rhombus;whiteSpace=wrap;html=1;shadow=0;sketch=0;fontSize=16;strokeWidth=1;fillColor=none;" vertex="1" parent="1">
          <mxGeometry x="610.96" y="-710" width="90" height="60" as="geometry" />
        </mxCell>
        <mxCell id="IBcWh0dy62o7TPi3pyYx-303" value="&lt;font style=&quot;font-size: 12px&quot;&gt;Compra&lt;/font&gt;" style="rhombus;whiteSpace=wrap;html=1;shadow=0;sketch=0;fontSize=16;strokeWidth=1;fillColor=none;" vertex="1" parent="1">
          <mxGeometry x="460.00000000000006" y="-527.5" width="90" height="60" as="geometry" />
        </mxCell>
        <mxCell id="IBcWh0dy62o7TPi3pyYx-304" value="" style="endArrow=none;html=1;rounded=0;fontSize=14;exitX=0.5;exitY=0;exitDx=0;exitDy=0;entryX=0.443;entryY=1.017;entryDx=0;entryDy=0;entryPerimeter=0;" edge="1" parent="1" source="IBcWh0dy62o7TPi3pyYx-303" target="IBcWh0dy62o7TPi3pyYx-104">
          <mxGeometry width="50" height="50" relative="1" as="geometry">
            <mxPoint x="556.5625" y="-570" as="sourcePoint" />
            <mxPoint x="659.0799999999999" y="-530" as="targetPoint" />
          </mxGeometry>
        </mxCell>
        <mxCell id="IBcWh0dy62o7TPi3pyYx-305" value="" style="endArrow=none;html=1;rounded=0;fontSize=14;exitX=0.5;exitY=1;exitDx=0;exitDy=0;entryX=0.25;entryY=0;entryDx=0;entryDy=0;" edge="1" parent="1" source="IBcWh0dy62o7TPi3pyYx-303" target="IBcWh0dy62o7TPi3pyYx-219">
          <mxGeometry width="50" height="50" relative="1" as="geometry">
            <mxPoint x="471.3800000000001" y="-537.5" as="sourcePoint" />
            <mxPoint x="515" y="-577.5" as="targetPoint" />
          </mxGeometry>
        </mxCell>
        <mxCell id="IBcWh0dy62o7TPi3pyYx-306" value="N" style="text;html=1;align=center;verticalAlign=middle;resizable=0;points=[];autosize=1;strokeColor=none;fillColor=none;fontSize=14;" vertex="1" parent="1">
          <mxGeometry x="477.50000000000006" y="-547.5" width="30" height="20" as="geometry" />
        </mxCell>
        <mxCell id="IBcWh0dy62o7TPi3pyYx-307" value="1" style="text;html=1;align=center;verticalAlign=middle;resizable=0;points=[];autosize=1;strokeColor=none;fillColor=none;fontSize=14;" vertex="1" parent="1">
          <mxGeometry x="482.5" y="-475" width="20" height="20" as="geometry" />
        </mxCell>
        <mxCell id="IBcWh0dy62o7TPi3pyYx-310" value="&lt;span style=&quot;font-size: 15px&quot;&gt;Unidade de Medida&lt;/span&gt;" style="rounded=0;whiteSpace=wrap;html=1;fontSize=12;strokeWidth=1;fillColor=none;" vertex="1" parent="1">
          <mxGeometry x="708.88" y="-787.5" width="175" height="75" as="geometry" />
        </mxCell>
        <mxCell id="IBcWh0dy62o7TPi3pyYx-311" value="" style="ellipse;whiteSpace=wrap;html=1;aspect=fixed;fontSize=15;fillOpacity=63;noLabel=0;fillColor=#1A1A1A;" vertex="1" parent="1">
          <mxGeometry x="830.76" y="-834.5" width="20" height="20" as="geometry" />
        </mxCell>
        <mxCell id="IBcWh0dy62o7TPi3pyYx-312" value="" style="line;strokeWidth=4;direction=south;html=1;perimeter=backbonePerimeter;points=[];outlineConnect=0;fontSize=15;" vertex="1" parent="1">
          <mxGeometry x="835.76" y="-814.5" width="10" height="30" as="geometry" />
        </mxCell>
        <mxCell id="IBcWh0dy62o7TPi3pyYx-313" value="" style="line;strokeWidth=4;direction=south;html=1;perimeter=backbonePerimeter;points=[];outlineConnect=0;fontSize=15;" vertex="1" parent="1">
          <mxGeometry x="778.26" y="-814.5" width="10" height="30" as="geometry" />
        </mxCell>
        <mxCell id="IBcWh0dy62o7TPi3pyYx-314" value="" style="ellipse;whiteSpace=wrap;html=1;aspect=fixed;fontSize=15;fillOpacity=63;noLabel=0;fillColor=none;" vertex="1" parent="1">
          <mxGeometry x="773.26" y="-834.5" width="20" height="20" as="geometry" />
        </mxCell>
        <mxCell id="IBcWh0dy62o7TPi3pyYx-315" value="" style="line;strokeWidth=4;direction=south;html=1;perimeter=backbonePerimeter;points=[];outlineConnect=0;fontSize=15;" vertex="1" parent="1">
          <mxGeometry x="718.26" y="-814.5" width="10" height="30" as="geometry" />
        </mxCell>
        <mxCell id="IBcWh0dy62o7TPi3pyYx-316" value="" style="ellipse;whiteSpace=wrap;html=1;aspect=fixed;fontSize=15;fillOpacity=63;noLabel=0;fillColor=none;" vertex="1" parent="1">
          <mxGeometry x="713.26" y="-834.5" width="20" height="20" as="geometry" />
        </mxCell>
        <mxCell id="IBcWh0dy62o7TPi3pyYx-317" value="&lt;font style=&quot;font-size: 12px&quot;&gt;Sigla&lt;/font&gt;" style="text;html=1;align=center;verticalAlign=middle;resizable=0;points=[];autosize=1;strokeColor=none;fillColor=none;fontSize=14;" vertex="1" parent="1">
          <mxGeometry x="767.76" y="-854.5" width="40" height="20" as="geometry" />
        </mxCell>
        <mxCell id="IBcWh0dy62o7TPi3pyYx-318" value="&lt;span style=&quot;font-size: 12px&quot;&gt;Nome&lt;/span&gt;" style="text;html=1;align=center;verticalAlign=middle;resizable=0;points=[];autosize=1;strokeColor=none;fillColor=none;fontSize=14;" vertex="1" parent="1">
          <mxGeometry x="691.51" y="-854.5" width="50" height="20" as="geometry" />
        </mxCell>
        <mxCell id="IBcWh0dy62o7TPi3pyYx-319" value="ID" style="text;html=1;align=center;verticalAlign=middle;resizable=0;points=[];autosize=1;strokeColor=none;fillColor=none;fontSize=12;" vertex="1" parent="1">
          <mxGeometry x="828.39" y="-854.5" width="30" height="20" as="geometry" />
        </mxCell>
        <mxCell id="IBcWh0dy62o7TPi3pyYx-321" value="" style="endArrow=none;html=1;rounded=0;fontSize=14;entryX=0;entryY=1;entryDx=0;entryDy=0;exitX=1;exitY=0;exitDx=0;exitDy=0;" edge="1" parent="1" source="IBcWh0dy62o7TPi3pyYx-298" target="IBcWh0dy62o7TPi3pyYx-310">
          <mxGeometry width="50" height="50" relative="1" as="geometry">
            <mxPoint x="875.0050000000001" y="-510" as="sourcePoint" />
            <mxPoint x="918.7550000000001" y="-570" as="targetPoint" />
          </mxGeometry>
        </mxCell>
        <mxCell id="IBcWh0dy62o7TPi3pyYx-324" value="&lt;font style=&quot;font-size: 14px&quot;&gt;1&lt;/font&gt;" style="text;html=1;strokeColor=none;fillColor=none;align=center;verticalAlign=middle;whiteSpace=wrap;rounded=0;fontSize=12;" vertex="1" parent="1">
          <mxGeometry x="650" y="-730" width="60" height="30" as="geometry" />
        </mxCell>
        <mxCell id="IBcWh0dy62o7TPi3pyYx-325" value="&lt;font style=&quot;font-size: 14px&quot;&gt;N&lt;/font&gt;" style="text;html=1;strokeColor=none;fillColor=none;align=center;verticalAlign=middle;whiteSpace=wrap;rounded=0;fontSize=12;" vertex="1" parent="1">
          <mxGeometry x="581.25" y="-680" width="30.13" height="30" as="geometry" />
        </mxCell>
        <mxCell id="IBcWh0dy62o7TPi3pyYx-327" value="" style="endArrow=none;html=1;rounded=0;fontSize=14;exitX=1;exitY=0;exitDx=0;exitDy=0;entryX=0;entryY=1;entryDx=0;entryDy=0;" edge="1" parent="1" source="IBcWh0dy62o7TPi3pyYx-104" target="IBcWh0dy62o7TPi3pyYx-298">
          <mxGeometry width="50" height="50" relative="1" as="geometry">
            <mxPoint x="591.25" y="-600" as="sourcePoint" />
            <mxPoint x="660" y="-600" as="targetPoint" />
          </mxGeometry>
        </mxCell>
        <mxCell id="IBcWh0dy62o7TPi3pyYx-344" value="&lt;span style=&quot;font-size: 15px&quot;&gt;CLT&lt;/span&gt;" style="rounded=0;whiteSpace=wrap;html=1;fontSize=12;strokeWidth=1;fillColor=none;" vertex="1" parent="1">
          <mxGeometry x="592.5" y="-1140" width="175" height="75" as="geometry" />
        </mxCell>
        <mxCell id="IBcWh0dy62o7TPi3pyYx-345" value="&lt;span style=&quot;font-size: 15px&quot;&gt;Pessoa Jurídica&lt;/span&gt;" style="rounded=0;whiteSpace=wrap;html=1;fontSize=12;strokeWidth=1;fillColor=none;" vertex="1" parent="1">
          <mxGeometry x="237.21" y="-1140" width="175" height="75" as="geometry" />
        </mxCell>
        <mxCell id="IBcWh0dy62o7TPi3pyYx-346" value="" style="triangle;whiteSpace=wrap;html=1;fontSize=12;strokeColor=default;strokeWidth=1;fillColor=none;rotation=90;" vertex="1" parent="1">
          <mxGeometry x="472.5" y="-1105" width="60" height="105" as="geometry" />
        </mxCell>
        <mxCell id="IBcWh0dy62o7TPi3pyYx-352" value="" style="endArrow=none;html=1;rounded=0;fontSize=14;exitX=1;exitY=0.5;exitDx=0;exitDy=0;entryX=0;entryY=0.75;entryDx=0;entryDy=0;" edge="1" parent="1" source="IBcWh0dy62o7TPi3pyYx-345" target="IBcWh0dy62o7TPi3pyYx-346">
          <mxGeometry width="50" height="50" relative="1" as="geometry">
            <mxPoint x="277.6199999999999" y="-885" as="sourcePoint" />
            <mxPoint x="311.3699999999999" y="-885" as="targetPoint" />
          </mxGeometry>
        </mxCell>
        <mxCell id="IBcWh0dy62o7TPi3pyYx-353" value="" style="endArrow=none;html=1;rounded=0;fontSize=14;exitX=0;exitY=0.5;exitDx=0;exitDy=0;entryX=0;entryY=0.25;entryDx=0;entryDy=0;" edge="1" parent="1" source="IBcWh0dy62o7TPi3pyYx-344" target="IBcWh0dy62o7TPi3pyYx-346">
          <mxGeometry width="50" height="50" relative="1" as="geometry">
            <mxPoint x="422.21000000000004" y="-1092.5" as="sourcePoint" />
            <mxPoint x="499.3800000000001" y="-1055" as="targetPoint" />
          </mxGeometry>
        </mxCell>
        <mxCell id="IBcWh0dy62o7TPi3pyYx-354" value="" style="endArrow=none;html=1;rounded=0;fontSize=14;exitX=1;exitY=0.5;exitDx=0;exitDy=0;" edge="1" parent="1" source="IBcWh0dy62o7TPi3pyYx-346" target="IBcWh0dy62o7TPi3pyYx-21">
          <mxGeometry width="50" height="50" relative="1" as="geometry">
            <mxPoint x="462.50000000000006" y="-1010" as="sourcePoint" />
            <mxPoint x="535.9099999999999" y="-970" as="targetPoint" />
          </mxGeometry>
        </mxCell>
        <mxCell id="IBcWh0dy62o7TPi3pyYx-356" value="" style="line;strokeWidth=4;html=1;perimeter=backbonePerimeter;points=[];outlineConnect=0;fontSize=12;fillColor=none;" vertex="1" parent="1">
          <mxGeometry x="767.76" y="-1130" width="47.5" height="10" as="geometry" />
        </mxCell>
        <mxCell id="IBcWh0dy62o7TPi3pyYx-357" value="" style="ellipse;whiteSpace=wrap;html=1;aspect=fixed;fontSize=15;fillOpacity=63;noLabel=0;fillColor=#1A1A1A;" vertex="1" parent="1">
          <mxGeometry x="815.26" y="-1135" width="20" height="20" as="geometry" />
        </mxCell>
        <mxCell id="IBcWh0dy62o7TPi3pyYx-358" value="CPF" style="text;html=1;align=center;verticalAlign=middle;resizable=0;points=[];autosize=1;strokeColor=none;fillColor=none;fontSize=12;" vertex="1" parent="1">
          <mxGeometry x="773.89" y="-1150" width="40" height="20" as="geometry" />
        </mxCell>
        <mxCell id="IBcWh0dy62o7TPi3pyYx-359" value="" style="line;strokeWidth=4;html=1;perimeter=backbonePerimeter;points=[];outlineConnect=0;fontSize=12;fillColor=none;" vertex="1" parent="1">
          <mxGeometry x="767.5" y="-1095" width="82.5" height="10" as="geometry" />
        </mxCell>
        <mxCell id="IBcWh0dy62o7TPi3pyYx-360" value="" style="ellipse;whiteSpace=wrap;html=1;aspect=fixed;fontSize=15;fillOpacity=63;noLabel=0;fillColor=none;" vertex="1" parent="1">
          <mxGeometry x="849.3800000000001" y="-1100" width="20" height="20" as="geometry" />
        </mxCell>
        <mxCell id="IBcWh0dy62o7TPi3pyYx-361" value="Num. Carteira&amp;nbsp;" style="text;html=1;align=center;verticalAlign=middle;resizable=0;points=[];autosize=1;strokeColor=none;fillColor=none;fontSize=12;" vertex="1" parent="1">
          <mxGeometry x="765.63" y="-1115" width="90" height="20" as="geometry" />
        </mxCell>
        <mxCell id="IBcWh0dy62o7TPi3pyYx-363" value="" style="line;strokeWidth=4;html=1;perimeter=backbonePerimeter;points=[];outlineConnect=0;fontSize=12;fillColor=none;" vertex="1" parent="1">
          <mxGeometry x="155.12" y="-1130" width="82.5" height="10" as="geometry" />
        </mxCell>
        <mxCell id="IBcWh0dy62o7TPi3pyYx-364" value="" style="ellipse;whiteSpace=wrap;html=1;aspect=fixed;fontSize=15;fillOpacity=63;noLabel=0;fillColor=#1A1A1A;" vertex="1" parent="1">
          <mxGeometry x="135.12" y="-1135" width="20" height="20" as="geometry" />
        </mxCell>
        <mxCell id="IBcWh0dy62o7TPi3pyYx-366" value="CNPJ" style="text;html=1;align=center;verticalAlign=middle;resizable=0;points=[];autosize=1;strokeColor=none;fillColor=none;fontSize=12;" vertex="1" parent="1">
          <mxGeometry x="171.25" y="-1150" width="50" height="20" as="geometry" />
        </mxCell>
        <mxCell id="IBcWh0dy62o7TPi3pyYx-367" value="" style="line;strokeWidth=4;html=1;perimeter=backbonePerimeter;points=[];outlineConnect=0;fontSize=12;fillColor=none;" vertex="1" parent="1">
          <mxGeometry x="155.12" y="-1095" width="82.5" height="10" as="geometry" />
        </mxCell>
        <mxCell id="IBcWh0dy62o7TPi3pyYx-368" value="" style="ellipse;whiteSpace=wrap;html=1;aspect=fixed;fontSize=15;fillOpacity=63;noLabel=0;fillColor=none;" vertex="1" parent="1">
          <mxGeometry x="133.7500000000001" y="-1100" width="20" height="20" as="geometry" />
        </mxCell>
        <mxCell id="IBcWh0dy62o7TPi3pyYx-369" value="&lt;span style=&quot;color: rgb(0 , 0 , 0) ; font-family: &amp;#34;helvetica&amp;#34; ; font-size: 12px ; font-style: normal ; font-weight: 400 ; letter-spacing: normal ; text-align: center ; text-indent: 0px ; text-transform: none ; word-spacing: 0px ; background-color: rgb(248 , 249 , 250) ; display: inline ; float: none&quot;&gt;Nome Fantasia&lt;/span&gt;" style="text;whiteSpace=wrap;html=1;fontSize=12;" vertex="1" parent="1">
          <mxGeometry x="153.75" y="-1115" width="90" height="30" as="geometry" />
        </mxCell>
        <mxCell id="IBcWh0dy62o7TPi3pyYx-370" value="É" style="text;html=1;align=center;verticalAlign=middle;resizable=0;points=[];autosize=1;strokeColor=none;fillColor=none;fontSize=12;" vertex="1" parent="1">
          <mxGeometry x="489.08000000000004" y="-1065" width="20" height="20" as="geometry" />
        </mxCell>
        <mxCell id="IBcWh0dy62o7TPi3pyYx-371" value="&lt;b&gt;&lt;font style=&quot;font-size: 19px&quot;&gt;MERCADO&lt;/font&gt;&lt;/b&gt;" style="text;html=1;align=center;verticalAlign=middle;resizable=0;points=[];autosize=1;strokeColor=none;fillColor=none;fontSize=12;" vertex="1" parent="1">
          <mxGeometry x="7.6200000000000045" y="-1170" width="110" height="20" as="geometry" />
        </mxCell>
      </root>
    </mxGraphModel>
  </diagram>
</mxfile>
